<svg xmlns="http://www.w3.org/2000/svg" xmlns:xlink="http://www.w3.org/1999/xlink" viewBox="0 0 256 256">
  <defs>
    <style>
      .cls-1 {
        fill: #d3e7f8;
      }

      .cls-2 {
        fill: #1d1d1b;
        opacity: 0.1;
      }

      .cls-3 {
        mask: url(#mask);
      }

      .cls-4 {
        opacity: 0.05;
      }

      .cls-5 {
        fill: #fff;
      }

      .cls-6 {
        fill: #d84800;
      }
    </style>
    <mask id="mask" x="97.05" y="-252.29" width="903.1" height="963.45" maskUnits="userSpaceOnUse"/>
  </defs>
  <title>buddypress</title>
  <g id="Layer_1" data-name="Layer 1">
    <rect class="cls-1" width="256" height="256"/>
    <path class="cls-2" d="M182.39,229.44c0,2-24.35,3.59-54.39,3.59s-54.39-1.61-54.39-3.59S98,225.85,128,225.85,182.39,227.46,182.39,229.44Z"/>
    <g class="cls-3">
      <g class="cls-4">
        <path d="M954.33,366.57l45.82,98.63Q930.23,598.39,791.42,662.84q-185.13,86-373.9,19T143.3,430.93Q81.08,297,102.56,166.34T202.09-67.18q68-89.35,177.65-140.27,97.41-45.24,195.32-44.83,105,3,202.9,57.5T930.12-23.4Q985,94.73,967.39,205.05T874.3,350.44Q783,392.88,728.1,274.75L701,216.3Q625.71,54.36,506.38,109.78q-53.61,24.9-67.39,76.45t11.09,105.15q24.33,52.37,74.91,68.83t101.74-7.28q45-20.93,66.71-63.56l44.12,95Q712.35,425.7,660,450q-87.66,40.72-175.1,10.28T352.75,333.63q-61.65-132.7,27-247.92,32.54-44.71,91-71.87Q575.41-34.8,670.07,16q72.75,38.76,128.77,159.29L821.47,224q12.45,26.81,29.49,18.87,25.57-11.88,22-77T837.57,32.33q-77.15-166-249.17-182.61l1.21-.57q-86.42-4.38-177.75,38-86.48,40.19-144,120.28Q214,85.91,204.51,188.19t37,202.31q68.56,147.6,211,199.34t291-17.29q82.8-38.46,125.84-82.88T954.33,366.57Z"/>
      </g>
    </g>
  </g>
  <g id="Scheduled_Triggers" data-name="Scheduled Triggers">
    <g>
      <path class="cls-5" d="M204.47,123.62a76.33,76.33,0,1,1,0-.05Z"/>
      <g>
        <path class="cls-6" d="M121.59,45.55c-20.45,2.11-38.34,10.94-51.28,25.34-11,12.17-17.32,25.82-19.8,42.46a101.34,101.34,0,0,0,0,20.53,78.22,78.22,0,0,0,133.83,44,77.59,77.59,0,0,0,21.42-44.12,98.43,98.43,0,0,0,0-20.38c-2.59-17.81-10-32.77-22.27-45a78.06,78.06,0,0,0-44.36-22.23A138,138,0,0,0,121.59,45.55ZM139,49.62a74.72,74.72,0,0,1-2.8,148.21,108.69,108.69,0,0,1-16.14,0,81.37,81.37,0,0,1-13.35-2.7A74.77,74.77,0,0,1,54.45,111a71.62,71.62,0,0,1,6.67-20.44A74.5,74.5,0,0,1,104.7,52.64,77.41,77.41,0,0,1,123,49,107.45,107.45,0,0,1,139,49.62Z"/>
        <path class="cls-6" d="M123.3,56.78a67.14,67.14,0,0,0-58.73,45.6,68.79,68.79,0,0,0-1.71,36.14,67.22,67.22,0,0,0,47.86,49.68c6.65,1.74,9.62,2.08,17.43,2.08s10.78-.34,17.43-2.08a67,67,0,0,0,49.06-56.46,91.41,91.41,0,0,0-.29-18.81,67.31,67.31,0,0,0-71-56.15Zm23.39,14c7.7,1.37,14.6,7.44,17.34,15.31a16.74,16.74,0,0,1,1,6.32,18,18,0,0,1-.48,6.28,23.1,23.1,0,0,1-13.32,15.76c-1.8.77-3.83,1.36-3.83,1.17s.43-1,1-2.06a27.73,27.73,0,0,0-16.08-38.93c-.86-.29-1.77-.57-2-.66-.6-.2,2.2-1.59,5-2.5A23.16,23.16,0,0,1,146.69,70.77Zm-17.4,8.12a23.22,23.22,0,0,1,17,18.27,27.79,27.79,0,0,1-.57,10.49,22.7,22.7,0,0,1-12.63,14.4,20.68,20.68,0,0,1-9.56,2c-10.12,0-18.54-6.18-21.82-16-.8-2.4-.88-3-.88-6.62a18.37,18.37,0,0,1,.62-6.27A23.41,23.41,0,0,1,120,78.44,32.3,32.3,0,0,1,129.29,78.89ZM165,118.06c8.58,2.7,13.8,9.26,16.11,20.23.6,2.94,1.34,11.06,1.06,11.8-.17.4-.86.46-5.19.46a40.15,40.15,0,0,1-5-.17,59.14,59.14,0,0,0-1.71-8.92c-2.82-9.52-9-16.71-16.17-18.84a2.56,2.56,0,0,1-1.23-.6,18.42,18.42,0,0,1,2.06-2.57l2.05-2.33,3,.17A20.63,20.63,0,0,1,165,118.06Zm-48.58,14.53,7.36,7.27,2.62-2.56c1.46-1.4,5.22-5.08,8.36-8.16l5.71-5.61,2.14.26a27.88,27.88,0,0,1,15.6,7.18c4.85,4.59,7.61,10.29,8.78,18a74.56,74.56,0,0,1,.26,12.94l-.17.88H123.7c-30.63,0-43.35-.08-43.47-.31-.4-.6-.51-8.46-.17-11.6,1.68-16,10.38-25.54,24.7-27.08C107.53,123.53,106.33,122.65,116.37,132.59Z"/>
      </g>
    </g>
  </g>
</svg>
